<svg width="410" height="365" viewBox="0 0 410 365" fill="none" xmlns="http://www.w3.org/2000/svg">
<path d="M130.524 90.143C136.794 98.566 146.046 89.5562 152.753 84.5277C164.34 75.8397 119.41 53.6435 152.753 51.5378C186.095 49.4321 155.317 69.7875 165.577 71.8933C175.836 73.999 187.805 68.3837 179.255 47.3263C170.706 26.2689 187.805 18.5479 213.453 64.1722C233.116 82.422 230.551 58.5569 211.743 28.3747C192.934 -1.8076 251.925 -3.91334 241.666 33.99C231.406 71.8933 243.375 96.4602 304.076 71.8933C340.496 57.1531 333.998 36.7976 358.791 19.9517C379.88 7.0833 381.02 25.567 363.066 52.9416C322.029 108.393 327.729 104.415 363.066 108.393C372.47 110.265 384.098 116.816 355.372 128.046C319.465 142.085 339.128 135.767 351.097 146.998C359.329 154.722 363.938 151.932 365.793 148.619C366.034 148.036 366.267 147.491 366.486 146.998C366.326 147.523 366.096 148.078 365.793 148.619C363.524 154.117 360.593 163.023 363.066 164.546C366.486 166.652 365.631 172.969 380.165 170.161C358.791 176.478 357.082 177.882 363.066 186.305C369.051 194.728 390.424 226.314 363.066 227.016C335.708 227.718 307.495 198.238 304.076 220.699C300.656 243.16 347.677 248.775 355.372 248.775C363.066 248.775 380.165 248.775 380.165 257.198C380.165 265.621 363.921 295.804 351.097 286.679C338.273 277.554 339.128 252.987 318.61 250.881C298.091 248.775 314.335 262.814 314.335 267.727C314.335 272.64 321.174 307.736 304.076 286.679C286.977 265.621 275.008 250.179 253.635 264.217C232.261 278.256 246.795 293.698 271.588 302.121C296.381 310.544 325.449 338.62 304.076 338.62C282.702 338.62 265.604 321.774 259.619 316.861C253.635 311.948 236.536 289.486 230.551 283.169C224.567 276.852 221.147 273.342 220.292 281.063C219.437 288.784 201.484 289.486 198.064 288.784C194.644 288.082 186.95 290.89 193.789 310.544C200.629 330.197 200.629 338.62 193.789 338.62C186.95 338.62 171.561 330.899 177.546 283.169C177.546 245.968 108.296 251.583 106.586 281.063C104.876 310.544 74.9536 292.294 71.5339 292.294C68.1141 292.294 28.7872 268.429 50.1605 257.198C71.5339 245.968 107.441 252.987 115.135 250.881C122.83 248.775 142.493 227.016 115.135 230.526C87.7776 234.035 98.0368 216.487 110.006 215.084C121.975 213.68 121.975 194.026 110.006 193.324C100.431 192.763 92.3372 199.641 89.4875 203.151C85.4978 205.725 77.8604 208.626 79.2283 199.641C80.9381 188.411 98.0368 184.901 101.457 177.882C104.876 170.863 115.99 165.248 108.296 158.93C100.602 152.613 93.7621 165.248 83.5029 171.565C73.2437 177.882 63.8395 177.882 64.6944 165.95C65.5493 154.017 88.6325 156.825 86.0677 143.488C83.5029 130.152 62.1296 129.45 56.1451 128.748C50.1605 128.046 42.4661 127.344 55.2901 121.027C68.1141 114.71 76.6635 131.556 87.7776 130.854C98.8917 130.152 110.861 118.921 105.731 106.287C100.602 93.6526 91.1973 78.2105 94.6171 69.7875C98.0368 61.3646 111.716 64.8741 117.7 71.8933C122.488 77.5086 124.255 81.72 130.524 90.143Z" fill="black" stroke="black"/>
<path d="M116.845 257.9C115.032 258.396 112.85 259.082 110.495 259.938C100.683 266.006 100.409 283.435 94.6169 288.784C87.7775 295.102 75.8084 290.89 70.6788 285.977C65.5492 281.063 47.5956 271.237 59.5647 261.41C71.5338 251.583 83.5028 290.89 86.0676 278.256C87.7239 270.097 100.632 263.524 110.495 259.938C112.27 258.841 114.357 258.115 116.845 257.9Z" fill="#D9D9D9"/>
<path d="M304.076 325.986C302.708 340.586 279.568 329.261 268.169 321.774C275.863 327.156 293.475 337.497 302.366 335.813C311.257 334.128 307.211 328.559 304.076 325.986Z" fill="#D9D9D9"/>
<path d="M190.37 333.005C184.214 335.813 181.535 317.797 180.965 308.438C179.825 311.947 178.401 320.932 181.82 328.793C186.095 338.62 194.644 337.918 195.499 335.813C196.354 333.707 198.064 329.495 190.37 333.005Z" fill="#D9D9D9"/>
<path d="M109.151 297.207C96.8398 300.576 101.171 305.63 104.876 307.736C117.187 313.913 124.255 298.143 126.249 289.486C125.68 290.656 121.462 293.838 109.151 297.207Z" fill="black"/>
<path d="M110.089 300.768C100.916 302.935 104.143 306.184 106.904 307.538C116.077 311.51 121.343 301.37 122.83 295.803C122.405 296.556 119.262 298.602 110.089 300.768Z" fill="#4E4E50"/>
<path d="M112.329 305.63C106.925 302.823 103.913 305.684 106.925 307.339C116.932 312.193 122.677 299.799 124.299 292.996C123.835 293.915 116.671 307.886 112.329 305.63Z" fill="#D9D9D9"/>
<path d="M27.2658 131.232C17.7507 141.513 12.9269 135.471 11.7043 131.164C8.71662 117.173 32.2999 116.648 44.465 118.135C42.6966 118.217 36.781 120.951 27.2658 131.232Z" fill="black"/>
<path d="M22.9906 128.965C16.3512 136.759 13.4327 132.457 12.8034 129.332C11.4032 119.152 26.8668 118.135 34.7737 118.899C33.6124 119.007 29.63 121.17 22.9906 128.965Z" fill="#4E4E50"/>
<path d="M17.5513 124.966C18.9887 131.145 13.9934 132.869 13.074 129.39C10.8634 118.082 29.4768 117.49 39.0598 118.608C37.6636 118.687 16.3967 120.002 17.5513 124.966Z" fill="#D9D9D9"/>
<path d="M73.963 168.081C68.9956 161.858 63.9536 166.222 66.6749 169.849C76.0496 180.763 79.2281 166.614 103.166 154.017C86.9225 151.911 77.9535 173.08 73.963 168.081Z" fill="#D9D9D9"/>
<path d="M62.6135 159.542C56.4499 166.833 53.7803 162.832 53.216 159.92C51.977 150.432 66.2442 149.43 73.5327 150.115C72.4611 150.22 68.7771 152.251 62.6135 159.542Z" fill="black"/>
<path d="M60.1227 158.108C55.7968 163.619 54.2078 160.757 53.954 158.637C53.5199 151.712 62.9022 150.595 67.6475 150.902C66.9417 151.008 64.4486 152.596 60.1227 158.108Z" fill="#4E4E50"/>
<path d="M56.9986 155.521C57.617 159.708 54.5298 161.023 54.115 158.669C53.237 150.995 64.5048 150.083 70.2484 150.586C69.4018 150.678 56.5019 152.157 56.9986 155.521Z" fill="#D9D9D9"/>
<path d="M95.1011 217.099C88.9375 224.389 86.2679 220.388 85.7035 217.477C84.4646 207.989 98.7318 206.987 106.02 207.672C104.949 207.777 101.265 209.808 95.1011 217.099Z" fill="black"/>
<path d="M92.6103 215.665C88.2844 221.176 86.6953 218.314 86.4416 216.194C86.0075 209.269 95.3897 208.152 100.135 208.459C99.4293 208.564 96.9361 210.153 92.6103 215.665Z" fill="#4E4E50"/>
<path d="M89.4862 213.078C90.1045 217.265 87.0173 218.58 86.6026 216.226C85.7246 208.552 96.9923 207.64 102.736 208.143C101.889 208.235 88.9894 209.714 89.4862 213.078Z" fill="#D9D9D9"/>
<path d="M351.097 281.765C346.309 279.519 340.553 265.855 338.273 259.304C343.403 266.557 354.859 280.642 359.646 278.958C365.631 276.852 367.341 263.515 365.631 274.746C363.921 285.977 357.081 284.573 351.097 281.765Z" fill="#D9D9D9"/>
<path d="M261.329 42.4128C254.49 46.9051 253.35 52.2396 253.635 54.3454C254.49 58.5568 261.329 54.3454 263.039 52.9415C264.749 51.5377 270.733 51.5377 275.008 47.3262C284.412 39.6052 269.878 36.7975 261.329 42.4128Z" fill="black"/>
<path d="M265.67 44.12C261.89 48.0958 256.88 51.4726 255.649 53.3637C253.281 57.1912 258.167 54.5811 259.61 53.621C261.052 52.6608 269.251 51.0441 273.298 48.0282C281.231 42.7472 273.298 36.0957 265.67 44.12Z" fill="#2C2A2B"/>
<path d="M271.771 41.4933C270.545 49.2454 256.364 51.4128 255.399 52.9171C253.553 55.9666 257.679 54.0192 258.885 53.2884C260.091 52.5576 267.18 51.5602 270.545 49.2454C277.18 45.2261 272.132 39.2106 271.771 41.4933Z" fill="#D9D9D9"/>
<path d="M264.131 13.1356C259.557 10.7954 256.761 13.6206 254.982 14.5905C250.408 17.9853 253.457 21.3802 259.557 20.8952C264.436 20.5072 265.656 19.1169 265.656 18.4703C266.419 17.177 266.903 14.5534 264.131 13.1356Z" fill="black" stroke="black"/>
<path d="M263.54 15.2798C260.433 13.7163 258.534 15.6038 257.325 16.2518C254.218 18.5198 256.29 20.7878 260.433 20.4638C263.747 20.2046 264.576 19.2758 264.576 18.8438C265.094 17.9798 265.422 16.227 263.54 15.2798Z" fill="#2C2A2B"/>
<path d="M260.404 19.5249C258.057 20.2716 257.479 18.9461 257.195 19.9694C257.109 21.2395 261.207 20.9044 263.454 19.9694C265.251 19.2215 264.327 17.1618 264.216 15.6451C264.159 14.8674 263.454 18.555 260.404 19.5249Z" fill="#D9D9D9"/>
<path d="M306.545 2.30982C301.416 -1.07725 298.281 3.01174 296.286 4.41556C291.157 9.32895 294.576 14.2423 301.416 13.5404C306.887 12.9789 308.255 10.9668 308.255 10.0309C309.11 8.1591 309.653 4.36184 306.545 2.30982Z" fill="black" stroke="black"/>
<path d="M305.882 5.41309C302.398 3.15025 300.269 5.88203 298.914 6.8199C295.429 10.1024 297.752 13.385 302.398 12.9161C306.115 12.5409 307.044 11.1966 307.044 10.5714C307.624 9.32089 307.993 6.78401 305.882 5.41309Z" fill="#2C2A2B"/>
<path d="M302.366 11.5572C299.733 12.6378 299.085 10.7194 298.768 12.2005C298.671 14.0386 303.266 13.5537 305.785 12.2005C307.801 11.118 306.765 8.13693 306.64 5.94185C306.576 4.81627 305.785 10.1534 302.366 11.5572Z" fill="#D9D9D9"/>
<path d="M308.255 21.9634C303.126 18.5763 299.991 22.6653 297.996 24.0691C292.866 28.9825 296.286 33.8959 303.126 33.194C308.597 32.6325 309.965 30.6203 309.965 29.6844C310.82 27.8127 311.363 24.0154 308.255 21.9634Z" fill="black" stroke="black"/>
<path d="M307.592 25.0667C304.108 22.8038 301.979 25.5356 300.624 26.4735C297.139 29.756 299.462 33.0386 304.108 32.5697C307.825 32.1945 308.754 30.8502 308.754 30.225C309.334 28.9745 309.703 26.4376 307.592 25.0667Z" fill="#2C2A2B"/>
<path d="M304.076 31.2107C301.443 32.2914 300.795 30.3729 300.477 31.8541C300.381 33.6922 304.976 33.2073 307.495 31.8541C309.511 30.7715 308.475 27.7905 308.35 25.5954C308.286 24.4698 307.495 29.8069 304.076 31.2107Z" fill="#D9D9D9"/>
<path d="M286.027 61.2705C280.898 57.8834 277.763 61.9724 275.768 63.3762C270.638 68.2896 274.058 73.203 280.898 72.5011C286.369 71.9396 287.737 69.9274 287.737 68.9915C288.592 67.1198 289.135 63.3225 286.027 61.2705Z" fill="black" stroke="black"/>
<path d="M285.364 64.3738C281.88 62.1109 279.751 64.8427 278.396 65.7806C274.911 69.0631 277.234 72.3457 281.88 71.8768C285.596 71.5016 286.526 70.1573 286.526 69.5321C287.106 68.2816 287.475 65.7447 285.364 64.3738Z" fill="#2C2A2B"/>
<path d="M281.848 70.5179C279.215 71.5985 278.567 69.6801 278.249 71.1612C278.153 72.9993 282.748 72.5144 285.267 71.1612C287.283 70.0787 286.247 67.0976 286.122 64.9025C286.058 63.777 285.267 69.114 281.848 70.5179Z" fill="#D9D9D9"/>
<path d="M318.515 43.0208C313.385 39.6337 310.25 43.7227 308.255 45.1265C303.126 50.0399 306.545 54.9533 313.385 54.2514C318.857 53.6899 320.224 51.6777 320.224 50.7418C321.079 48.8701 321.622 45.0728 318.515 43.0208Z" fill="black" stroke="black"/>
<path d="M317.851 46.1241C314.367 43.8613 312.238 46.593 310.883 47.5309C307.399 50.8134 309.721 54.096 314.367 53.6271C318.084 53.2519 319.013 51.9076 319.013 51.2824C319.594 50.0319 319.962 47.495 317.851 46.1241Z" fill="#2C2A2B"/>
<path d="M314.335 52.2682C311.702 53.3488 311.055 51.4304 310.737 52.9115C310.64 54.7496 315.235 54.2647 317.755 52.9115C319.77 51.829 318.734 48.8479 318.61 46.6529C318.546 45.5273 317.755 50.8643 314.335 52.2682Z" fill="#D9D9D9"/>
<path d="M286.027 20.5596C280.898 17.1725 277.763 21.2615 275.768 22.6653C270.638 27.5787 274.058 32.4921 280.898 31.7902C286.369 31.2287 287.737 29.2165 287.737 28.2806C288.592 26.4089 289.135 22.6116 286.027 20.5596Z" fill="black" stroke="black"/>
<path d="M285.364 23.6628C281.88 21.4 279.751 24.1318 278.396 25.0697C274.911 28.3522 277.234 31.6347 281.88 31.1658C285.596 30.7907 286.526 29.4464 286.526 28.8211C287.106 27.5706 287.475 25.0338 285.364 23.6628Z" fill="#2C2A2B"/>
<path d="M281.848 29.8069C279.215 30.8876 278.567 28.9691 278.249 30.4503C278.153 32.2884 282.748 31.8035 285.267 30.4503C287.283 29.3677 286.247 26.3867 286.122 24.1916C286.058 23.066 285.267 28.4031 281.848 29.8069Z" fill="#D9D9D9"/>
<path d="M111.716 75.688C109.664 68.3881 105.731 69.3708 104.021 70.7746C105.713 70.7746 109.279 76.6707 110.006 100.255C110.914 129.735 120.265 122.716 118.555 119.207C116.845 115.697 121.975 106.572 126.25 98.8511C129.669 92.6743 123.685 86.4507 120.265 84.111C118.27 84.3449 113.767 82.9879 111.716 75.688Z" fill="#D9D9D9"/>
<path d="M186.394 62.8003C189.814 54.9389 183.26 44.0826 179.555 39.6372C179.555 36.1276 182.12 37.5315 186.394 39.6372C190.669 41.7429 189.814 65.608 189.814 71.9252C189.814 78.2424 179.555 82.4539 177.845 81.0501C176.135 79.6462 182.12 72.6271 186.394 62.8003Z" fill="#D9D9D9"/>
<path d="M200.073 55.0793C203.208 59.7587 210.845 69.3983 216.317 70.5214C222.115 71.7114 226.07 72.9014 227.66 72.3811C228.297 71.7973 228.524 71.5337 228.286 71.9252C228.156 72.139 227.946 72.2877 227.66 72.3811C226.014 73.8906 221.627 77.5405 215.462 77.5405C206.913 77.5405 200.073 57.185 200.073 55.0793Z" fill="#D9D9D9"/>
<path d="M186.394 62.8003C189.814 54.9389 183.26 44.0826 179.555 39.6372C179.555 36.1276 182.12 37.5315 186.394 39.6372C190.669 41.7429 189.814 65.608 189.814 71.9252C189.814 78.2424 179.555 82.4539 177.845 81.0501C176.135 79.6462 182.12 72.6271 186.394 62.8003Z" stroke="black"/>
<path d="M200.073 55.0793C203.208 59.7587 210.845 69.3983 216.317 70.5214C222.115 71.7114 226.07 72.9014 227.66 72.3811C228.297 71.7973 228.524 71.5337 228.286 71.9252C228.156 72.139 227.946 72.2877 227.66 72.3811C226.014 73.8906 221.627 77.5405 215.462 77.5405C206.913 77.5405 200.073 57.185 200.073 55.0793Z" stroke="black"/>
<path d="M99.2962 32.8431C93.1407 26.6663 80.0831 24.8651 75.8084 28.3746C69.8239 32.5861 68.969 36.7976 68.969 40.3071C68.969 41.711 65.5492 49.432 95.0216 52.4967C101.861 48.2852 106.991 40.5642 99.2962 32.8431Z" fill="black"/>
<path d="M77.0434 45.2926C82.173 47.3983 88.1576 45.9945 94.1421 51.6098C104.938 44.3577 97.4457 37.149 89.0125 31.9562C79.3896 26.0308 62.8755 39.4765 77.0434 45.2926Z" fill="#4E4E50"/>
<path d="M80.273 43.8481C80.273 43.8481 77.7201 40.6676 75.1434 40.3385C71.2961 39.8472 73.4335 45.2519 80.273 47.3577C87.1126 49.4634 91.1971 51.5377 93.7619 52.2397C94.6169 50.8358 94.4459 51.1166 97.1817 49.432C99.9174 47.7474 98.2267 46.4218 97.3717 45.9538C96.5168 45.2519 93.61 44.1289 88.8224 45.2519C82.8378 46.6558 80.273 43.8481 80.273 43.8481Z" fill="#D9D9D9"/>
<path d="M336.248 68.4501C330.679 71.1842 322.347 80.7924 318.877 85.2547C322.719 80.0062 331.464 67.5917 335.707 59.9226C341.009 50.3362 353.261 43.8034 357.545 33.6828C361.829 23.5622 363.878 18.1592 370.091 18.4712C376.303 18.7832 372.106 32.4821 370.154 34.9922C368.202 37.5022 343.209 65.0325 336.248 68.4501Z" fill="#D9D9D9"/>
<path d="M357.081 116.6C352.807 121.513 343.403 117.302 335.708 118.706C331.433 119.486 325.449 122.431 322.884 135.552C327.174 124.321 331.433 125.941 340.838 124.321C345.571 123.506 352.807 123.349 363.921 119.623C367.461 118.437 369.051 113.792 365.631 110.283C362.211 106.773 361.356 111.687 357.081 116.6Z" fill="#D9D9D9"/>
<path d="M337.782 148.054C342.187 147.839 342.846 152.901 346.302 155.256C348.222 156.564 352.024 157.712 360.783 153.834C352.574 156.372 352.103 154.185 347.937 151.272C345.841 149.806 343.29 147.163 337.278 144.387C335.363 143.503 332.031 144.622 331.082 147.191C330.132 149.761 333.377 148.27 337.782 148.054Z" fill="#D9D9D9"/>
<path d="M359.621 171.994C361.326 168.809 356.045 167.338 354.64 164.348C353.859 162.686 353.881 159.677 361.02 154.017C355.521 159.535 357.74 160.307 359.515 163.927C360.409 165.749 362.429 168.133 363.438 173.079C363.759 174.654 361.432 176.876 358.322 177.071C355.212 177.265 357.916 175.179 359.621 171.994Z" fill="#D9D9D9"/>
<path d="M367.341 222.805C358.449 226.174 344.827 221.401 339.128 218.593C343.973 219.997 356.056 222.103 365.631 219.295C375.206 216.487 365.631 200.343 359.646 192.622C361.926 194.494 366.999 198.799 369.051 201.045C371.615 203.853 378.455 218.593 367.341 222.805Z" fill="#D9D9D9"/>
<path d="M397.686 148.92C385.377 146.049 374.607 155.801 370.76 161.036C373.068 160.587 384.608 161.036 397.686 160.139C410.764 159.241 413.072 152.51 397.686 148.92Z" fill="black"/>
<path d="M396.969 157.06C393.809 157.713 387.636 156.873 381.949 157.06C378.789 157.164 374.366 157.555 372.47 159.298C375.641 157.806 379.936 158.95 386.769 159.298C397.46 159.841 396.534 159.841 403.013 158.396C410.857 156.646 404.023 152.227 401.441 152.64C395.219 153.637 400.128 156.407 396.969 157.06Z" fill="#505052"/>
<path d="M396.944 155.142C394.89 155.925 390.877 154.918 387.181 155.142C385.127 155.266 382.252 155.736 381.02 157.827C383.081 156.037 385.872 157.41 390.314 157.827C397.263 158.479 396.661 158.479 400.872 156.745C405.971 154.645 401.529 149.342 399.85 149.838C395.806 151.035 398.997 154.358 396.944 155.142Z" fill="#D9D9D9"/>
<ellipse cx="16.1503" cy="7.68535" rx="16.1503" ry="7.68535" transform="matrix(0.987925 0.154931 -0.226603 0.973987 372.791 174.111)" fill="black"/>
<ellipse cx="11.5359" cy="4.80335" rx="11.5359" ry="4.80335" transform="matrix(0.987925 0.154931 -0.226603 0.973987 376.479 178.569)" fill="#2C2A2B"/>
<path d="M397.077 186.025C395.817 187.379 384.866 186.05 379.547 185.216C366.793 184.186 383.017 190.609 391.213 190.925C399.408 191.24 398.653 184.333 397.077 186.025Z" fill="#D9D9D9"/>
<ellipse cx="10.2695" cy="3.41105" rx="10.2695" ry="3.41105" transform="matrix(0.987925 0.154931 -0.226603 0.973987 62.8206 217.189)" fill="black"/>
<ellipse cx="7.33539" cy="2.13191" rx="7.33539" ry="2.13191" transform="matrix(0.987925 0.154931 -0.226603 0.973987 65.3328 219.305)" fill="#2C2A2B"/>
<path d="M78.6133 223.263C77.8789 223.837 70.9316 222.92 67.5498 222.389C59.4817 221.554 69.9654 224.92 75.1348 225.3C80.3042 225.681 79.5312 222.546 78.6133 223.263Z" fill="#D9D9D9"/>
<ellipse cx="10.1064" cy="3.4877" rx="10.1064" ry="3.4877" transform="matrix(0.952842 -0.303466 0.427199 0.904158 47.3945 206.574)" fill="black"/>
<ellipse cx="7.21886" cy="2.17982" rx="7.21886" ry="2.17982" transform="matrix(0.952842 -0.303466 0.427199 0.904158 50.8907 207.274)" fill="#2C2A2B"/>
<path d="M64.7074 204.85C64.4552 205.656 57.9722 207.902 54.7623 208.925C47.3822 211.728 58.4449 210.019 63.0735 208.092C67.7022 206.164 65.0228 203.843 64.7074 204.85Z" fill="#D9D9D9"/>
<ellipse cx="15.4354" cy="16.3872" rx="15.4354" ry="16.3872" transform="matrix(0.987925 0.154931 -0.226603 0.973987 65.2816 308.438)" fill="black"/>
<ellipse cx="11.0253" cy="10.242" rx="11.0253" ry="10.242" transform="matrix(0.987925 0.154931 -0.226603 0.973987 67.7817 317.102)" fill="#2C2A2B"/>
<path d="M86.353 329.025C84.7389 332.08 74.1694 331.25 69.0864 330.453C56.6408 330.569 71.1224 341.112 79.2111 340.312C87.2997 339.513 88.3705 325.205 86.353 329.025Z" fill="#D9D9D9"/>
<ellipse cx="15.4354" cy="16.3872" rx="15.4354" ry="16.3872" transform="matrix(0.987925 0.154931 -0.226603 0.973987 135.386 266.323)" fill="black"/>
<ellipse cx="11.0253" cy="10.242" rx="11.0253" ry="10.242" transform="matrix(0.987925 0.154931 -0.226603 0.973987 137.886 274.987)" fill="#2C2A2B"/>
<path d="M156.457 286.91C154.843 289.966 144.274 289.135 139.191 288.338C126.745 288.454 141.227 298.997 149.316 298.197C157.404 297.398 158.475 283.091 156.457 286.91Z" fill="#D9D9D9"/>
<ellipse cx="15.4354" cy="16.3872" rx="15.4354" ry="16.3872" transform="matrix(0.987925 0.154931 -0.226603 0.973987 145.645 328.091)" fill="black"/>
<ellipse cx="11.0253" cy="10.242" rx="11.0253" ry="10.242" transform="matrix(0.987925 0.154931 -0.226603 0.973987 148.146 336.755)" fill="#2C2A2B"/>
<path d="M166.717 348.678C165.103 351.734 154.533 350.904 149.45 350.106C137.005 350.223 151.486 360.765 159.575 359.966C167.664 359.166 168.734 344.859 166.717 348.678Z" fill="#D9D9D9"/>
<ellipse cx="13.1861" cy="5.82975" rx="13.1861" ry="5.82975" transform="matrix(0.987925 0.154931 -0.226603 0.973987 323.816 224.208)" fill="black"/>
<ellipse cx="9.41866" cy="3.64359" rx="9.41866" ry="3.64359" transform="matrix(0.987925 0.154931 -0.226603 0.973987 326.878 227.631)" fill="#2C2A2B"/>
<path d="M343.751 233.483C342.742 234.502 333.806 233.394 329.463 232.713C319.063 231.818 332.36 236.846 339.038 237.158C345.717 237.469 345.012 232.209 343.751 233.483Z" fill="#D9D9D9"/>
<path d="M154.776 201.919C151.682 202.079 150.082 201.199 149.976 199.279C149.976 198.373 150.242 197.199 150.776 195.759C151.416 193.946 151.789 192.106 151.896 190.239C152.056 188.319 152.136 186.399 152.136 184.479C152.136 182.933 152.109 181.173 152.056 179.199C152.002 177.173 151.922 174.906 151.816 172.399C151.762 170.693 151.682 168.986 151.576 167.279C151.469 165.573 151.362 163.866 151.256 162.159C151.256 161.519 151.176 160.506 151.016 159.119C150.856 157.679 150.669 156.266 150.456 154.879C150.296 153.493 150.216 152.559 150.216 152.079C150.216 150.959 150.856 150.399 152.136 150.399C152.456 150.399 152.962 150.453 153.656 150.559C154.402 150.666 154.909 150.719 155.176 150.719C156.296 150.666 158.882 150.426 162.936 149.999C163.469 149.946 164.136 149.786 164.936 149.519C165.736 149.199 166.536 148.906 167.336 148.639C168.136 148.319 168.802 148.159 169.336 148.159C169.709 148.159 170.162 148.533 170.696 149.279C171.229 150.026 171.496 150.586 171.496 150.959C171.496 151.226 171.042 151.493 170.136 151.759C169.229 152.026 168.109 152.293 166.776 152.559C165.496 152.826 164.269 153.039 163.096 153.199C161.976 153.359 161.176 153.439 160.696 153.439C162.242 154.826 164.642 155.679 167.896 155.999C167.789 155.679 167.709 155.173 167.656 154.479V154.319C167.656 153.679 168.029 153.306 168.776 153.199C169.202 153.199 169.656 153.359 170.136 153.679C170.669 153.999 170.936 154.373 170.936 154.799C170.989 155.173 170.909 155.839 170.696 156.799C170.482 157.759 170.376 158.506 170.376 159.039C170.376 159.573 170.429 160.293 170.536 161.199C170.696 162.106 170.856 163.013 171.016 163.919C171.176 164.826 171.256 165.546 171.256 166.079V166.639C171.256 167.706 171.016 168.293 170.536 168.399C169.256 167.866 168.562 167.039 168.456 165.919C168.082 166.133 167.736 166.293 167.416 166.399C167.096 166.453 166.802 166.506 166.536 166.559C166.002 166.559 165.256 166.453 164.296 166.239C163.336 165.973 162.589 165.839 162.056 165.839C161.629 165.839 160.962 165.973 160.056 166.239C159.202 166.453 158.536 166.559 158.056 166.559C156.776 166.613 155.309 166.159 153.656 165.199C153.709 165.893 153.762 166.879 153.816 168.159C153.869 169.386 153.922 170.906 153.976 172.719C155.149 173.199 156.056 173.999 156.696 175.119C157.122 175.813 157.469 176.373 157.736 176.799C158.002 177.226 158.242 177.546 158.456 177.759C158.829 178.079 159.362 178.399 160.056 178.719C160.749 178.986 161.576 179.279 162.536 179.599C164.242 180.133 165.576 180.799 166.536 181.599C167.549 182.399 168.109 183.813 168.216 185.839C168.322 187.386 167.736 188.986 166.456 190.639C165.229 192.346 164.616 193.439 164.616 193.919C164.722 194.719 165.016 195.439 165.496 196.079C165.922 195.973 166.482 195.839 167.176 195.679C167.922 195.519 168.749 195.386 169.656 195.279C169.709 195.013 169.736 194.666 169.736 194.239C169.736 193.759 169.736 193.173 169.736 192.479C169.736 191.146 169.709 189.386 169.656 187.199C169.602 185.013 169.522 182.399 169.416 179.359C169.362 178.613 169.229 177.546 169.016 176.159C168.856 174.719 168.749 173.653 168.696 172.959V172.639C168.696 171.413 169.176 170.799 170.136 170.799H170.296C171.096 170.799 171.549 171.386 171.656 172.559V177.279C171.656 179.679 171.656 182.426 171.656 185.519C171.709 188.559 171.762 191.973 171.816 195.759C173.256 196.293 174.029 197.066 174.136 198.079C174.136 198.506 173.922 199.013 173.496 199.599C173.122 200.133 172.669 200.613 172.136 201.039C171.602 201.466 171.122 201.679 170.696 201.679C170.376 201.679 169.789 201.466 168.936 201.039C168.082 200.559 167.282 200.319 166.536 200.319C166.056 200.319 165.282 200.399 164.216 200.559C163.149 200.719 161.976 200.906 160.696 201.119C159.469 201.279 158.296 201.466 157.176 201.679C156.109 201.839 155.309 201.919 154.776 201.919ZM176.687 202.799C175.407 202.799 174.74 202.213 174.687 201.039V200.799C174.687 200.533 174.713 200.239 174.767 199.919C174.873 199.599 174.953 199.253 175.007 198.879C175.38 197.493 175.647 195.866 175.807 193.999C175.967 192.079 176.073 189.893 176.127 187.439C176.18 184.559 176.287 182.159 176.447 180.239C176.607 178.319 176.74 176.853 176.847 175.839C177.007 174.506 177.167 172.986 177.327 171.279C177.487 169.573 177.62 167.706 177.727 165.679C177.94 162.373 178.1 159.866 178.207 158.159C178.367 156.399 178.447 155.493 178.447 155.439C178.553 154.479 178.633 153.706 178.687 153.119C178.74 152.533 178.793 152.133 178.847 151.919C178.953 151.226 179.327 150.746 179.967 150.479C180.607 150.159 181.327 149.999 182.127 149.999C182.927 149.999 183.94 150.026 185.167 150.079C186.447 150.133 187.673 150.186 188.847 150.239C190.073 150.239 190.953 150.239 191.487 150.239C192.02 150.186 192.713 150.053 193.567 149.839C194.473 149.573 195.353 149.333 196.207 149.119C197.113 148.853 197.833 148.693 198.367 148.639H198.687C199.54 148.639 199.993 148.959 200.047 149.599C200.313 152.266 201.007 155.466 202.127 159.199C203.247 162.933 204.873 167.173 207.007 171.919C207.593 169.466 208.18 166.719 208.767 163.679C209.407 160.586 210.073 157.173 210.767 153.439C210.767 152.959 210.66 152.319 210.447 151.519C210.287 150.666 210.207 150.133 210.207 149.919C210.207 148.693 211.087 148.053 212.847 147.999C212.953 147.999 213.3 148.026 213.887 148.079C214.473 148.133 215.273 148.213 216.287 148.319C218.313 148.586 219.967 148.666 221.247 148.559C221.887 148.506 222.713 148.399 223.727 148.239C224.74 148.079 225.753 147.919 226.767 147.759C227.833 147.546 228.633 147.413 229.167 147.359C230.127 147.199 230.767 148.133 231.087 150.159L231.407 154.319C231.513 155.066 231.94 157.146 232.687 160.559C233.433 163.919 234.5 168.559 235.887 174.479C237.273 180.453 238.34 185.039 239.087 188.239C239.887 191.386 240.367 193.146 240.527 193.519C240.687 193.893 240.847 194.346 241.007 194.879C241.167 195.359 241.353 195.946 241.567 196.639C241.62 197.973 240.473 198.719 238.127 198.879L231.487 199.199C229.993 199.253 228.66 199.333 227.487 199.439C226.367 199.546 225.433 199.599 224.687 199.599C223.78 199.599 223.193 198.879 222.927 197.439C222.713 196.213 222.473 194.533 222.207 192.399C221.94 190.266 221.673 187.706 221.407 184.719C221.193 181.999 220.927 179.573 220.607 177.439C220.34 175.306 220.073 173.493 219.807 171.999C219.433 173.066 218.607 177.199 217.327 184.399C216.74 187.813 216.26 190.533 215.887 192.559C215.567 194.586 215.407 195.839 215.407 196.319C215.407 196.533 215.407 196.719 215.407 196.879C215.46 197.039 215.487 197.226 215.487 197.439C215.487 199.786 214.447 201.013 212.367 201.119C211.887 201.119 211.007 201.146 209.727 201.199C208.5 201.199 207.273 201.199 206.047 201.199C204.82 201.199 203.913 201.226 203.327 201.279C202.9 201.333 202.313 200.693 201.567 199.359C200.873 198.026 200.127 196.346 199.327 194.319C198.58 192.293 197.833 190.186 197.087 187.999C196.393 185.759 195.78 183.759 195.247 181.999C194.767 180.186 194.447 178.879 194.287 178.079C194.233 178.986 194.207 180.079 194.207 181.359C194.207 182.586 194.207 183.973 194.207 185.519V189.759C194.313 190.986 194.34 191.626 194.287 191.679C194.127 192.053 193.967 192.346 193.807 192.559C193.7 192.773 193.407 192.879 192.927 192.879C191.38 192.879 190.607 191.359 190.607 188.319C190.607 187.093 190.82 185.759 191.247 184.319C191.887 181.973 192.207 179.039 192.207 175.519C192.207 174.773 192.18 174.026 192.127 173.279C192.073 172.479 192.047 171.653 192.047 170.799C192.047 170.266 192.233 169.706 192.607 169.119C192.98 168.479 193.407 168.133 193.887 168.079C194.26 168.293 194.473 168.666 194.527 169.199C194.58 169.519 194.58 170.053 194.527 170.799C194.473 171.493 194.473 171.919 194.527 172.079C194.58 172.506 194.98 173.733 195.727 175.759C196.527 177.786 197.7 180.613 199.247 184.239C199.887 183.599 200.713 183.226 201.727 183.119C202.047 183.119 202.5 183.173 203.087 183.279C203.673 183.333 204.127 183.359 204.447 183.359C204.98 183.306 205.593 183.039 206.287 182.559C207.033 182.079 207.673 181.813 208.207 181.759C211.14 181.493 212.607 182.693 212.607 185.359C212.607 186.746 211.62 187.573 209.647 187.839C208.793 187.946 208.18 188.479 207.807 189.439C207.54 190.133 207.273 190.719 207.007 191.199C206.74 191.626 206.553 191.919 206.447 192.079C206.073 192.559 205.513 192.879 204.767 193.039C204.073 193.146 203.247 193.173 202.287 193.119C203.193 195.999 205.513 197.333 209.247 197.119C210.953 196.959 212.073 195.679 212.607 193.279L215.167 183.039C215.647 181.066 216.047 179.226 216.367 177.519C216.687 175.759 216.953 174.133 217.167 172.639C215.78 172.213 214.607 171.413 213.647 170.239C212.687 169.066 212.207 167.733 212.207 166.239C212.207 165.013 212.5 163.999 213.087 163.199C213.727 162.399 214.5 161.733 215.407 161.199C216.313 160.613 217.193 160.026 218.047 159.439C218.473 159.013 218.873 158.426 219.247 157.679C219.62 156.879 219.993 155.973 220.367 154.959C220.74 153.893 221.087 153.013 221.407 152.319C221.727 151.626 222.073 151.093 222.447 150.719C221.273 150.879 220.207 150.986 219.247 151.039C218.287 151.093 217.433 151.119 216.687 151.119C216.153 151.119 215.673 151.119 215.247 151.119C214.82 151.066 214.42 151.013 214.047 150.959C213.353 153.573 212.527 156.826 211.567 160.719C210.66 164.559 209.593 169.093 208.367 174.319C208.527 174.533 208.687 174.853 208.847 175.279C209.007 175.653 209.193 176.106 209.407 176.639C209.46 177.226 209.193 177.786 208.607 178.319C208.02 178.853 207.433 179.119 206.847 179.119C205.353 179.119 204.26 177.413 203.567 173.999C202.447 172.986 201.647 171.919 201.167 170.799C200.687 169.679 200.233 168.506 199.807 167.279C199.167 165.519 197.833 164.239 195.807 163.439C193.833 162.639 192.34 161.013 191.327 158.559C190.633 156.853 189.673 156.053 188.447 156.159H188.127C187.433 156.159 186.393 156.613 185.007 157.519C183.62 158.426 182.34 158.879 181.167 158.879C180.953 158.879 180.74 158.879 180.527 158.879C180.313 158.826 180.1 158.773 179.887 158.719C179.833 159.573 179.78 160.399 179.727 161.199C179.727 161.946 179.753 162.639 179.807 163.279C181.353 163.546 182.367 164.026 182.847 164.719C183.487 165.786 183.94 166.399 184.207 166.559C185.06 166.826 185.887 167.119 186.687 167.439C187.54 167.759 187.967 168.666 187.967 170.159C187.967 171.013 187.673 171.759 187.087 172.399C186.553 173.039 185.833 173.413 184.927 173.519C184.5 173.573 183.993 173.413 183.407 173.039C182.82 172.666 182.233 172.266 181.647 171.839C181.06 171.413 180.5 171.199 179.967 171.199C180.02 171.733 180.047 172.346 180.047 173.039C180.1 173.679 180.127 174.373 180.127 175.119C180.127 175.866 180.1 176.666 180.047 177.519C180.047 178.319 180.02 179.173 179.967 180.079C181.087 179.439 182.18 179.119 183.247 179.119C184.58 179.119 185.78 179.573 186.847 180.479C187.967 181.386 188.607 182.506 188.767 183.839C188.873 184.586 188.687 185.573 188.207 186.799C187.727 187.973 187.487 188.933 187.487 189.679C187.487 190.373 187.753 191.386 188.287 192.719C188.873 194.053 189.14 195.359 189.087 196.639C189.567 196.586 189.993 196.559 190.367 196.559C190.74 196.559 191.06 196.559 191.327 196.559C193.62 196.559 194.767 197.359 194.767 198.959C194.767 200.826 192.447 201.973 187.807 202.399C187.273 202.453 186.473 202.479 185.407 202.479C184.393 202.533 183.273 202.586 182.047 202.639C180.873 202.693 179.78 202.719 178.767 202.719C177.807 202.773 177.113 202.799 176.687 202.799ZM238.207 194.239C238.42 193.706 238.5 193.013 238.447 192.159C238.34 190.773 238.127 189.226 237.807 187.519C237.54 185.813 237.167 183.973 236.687 181.999L234.047 171.919L233.087 172.079C232.5 172.133 231.833 172.079 231.087 171.919C230.34 171.706 229.513 171.413 228.607 171.039C226.847 170.293 225.487 169.919 224.527 169.919C224.1 169.919 223.567 170.079 222.927 170.399C222.34 170.666 221.673 171.173 220.927 171.919C221.193 172.933 221.433 174.106 221.647 175.439C221.913 176.773 222.127 178.266 222.287 179.919C222.393 181.253 222.527 182.586 222.687 183.919C222.847 185.253 222.98 186.613 223.087 187.999C223.567 184.853 223.887 183.119 224.047 182.799C224.473 181.946 225.06 181.279 225.807 180.799C226.553 180.319 227.513 180.079 228.687 180.079C229.807 180.079 230.74 180.479 231.487 181.279C232.287 182.079 232.74 183.039 232.847 184.159C232.847 184.639 232.82 185.386 232.767 186.399C232.713 187.359 232.687 188.079 232.687 188.559C232.847 190.586 233.3 191.973 234.047 192.719C234.793 193.413 236.18 193.919 238.207 194.239ZM263.299 200.079C262.926 200.079 261.859 200.026 260.099 199.919C258.393 199.813 256.046 199.706 253.059 199.599C251.939 199.546 251.033 199.386 250.339 199.119C249.699 198.799 249.379 197.973 249.379 196.639C249.379 196.479 249.379 196.239 249.379 195.919C249.433 195.546 249.486 195.093 249.539 194.559C249.593 193.333 249.673 191.786 249.779 189.919C249.939 187.999 250.126 185.813 250.339 183.359C250.713 178.399 250.953 174.666 251.059 172.159C251.113 171.093 251.219 169.999 251.379 168.879C251.539 167.759 251.886 166.719 252.419 165.759C249.646 165.973 246.526 166.213 243.059 166.479C242.153 166.426 241.699 165.546 241.699 163.839C241.699 161.919 241.806 159.679 242.019 157.119C242.233 154.506 242.499 151.599 242.819 148.399C243.086 147.279 243.753 146.746 244.819 146.799C245.833 146.853 247.086 146.986 248.579 147.199C250.126 147.359 251.939 147.599 254.019 147.919C256.046 148.239 257.806 148.506 259.299 148.719C260.846 148.879 262.126 148.986 263.139 149.039C263.566 149.039 263.993 149.066 264.419 149.119C264.846 149.119 265.326 149.119 265.859 149.119C266.606 149.119 267.433 149.119 268.339 149.119C269.246 149.066 270.206 149.013 271.219 148.959C272.286 148.906 273.273 148.879 274.179 148.879C275.086 148.826 275.886 148.799 276.579 148.799C277.113 148.799 277.593 148.826 278.019 148.879C278.446 148.879 278.846 148.879 279.219 148.879C281.299 148.986 282.259 150.186 282.099 152.479L281.379 165.919C281.273 167.413 280.606 168.159 279.379 168.159C278.899 168.159 278.179 168.053 277.219 167.839C276.259 167.626 275.299 167.413 274.339 167.199C273.379 166.986 272.633 166.879 272.099 166.879C271.139 166.879 270.579 168.399 270.419 171.439C270.366 172.453 270.339 173.466 270.339 174.479C270.339 175.493 270.339 176.533 270.339 177.599C270.233 179.039 269.806 179.733 269.059 179.679C268.739 179.679 268.579 179.066 268.579 177.839C268.579 177.039 268.606 176.213 268.659 175.359C268.766 174.506 268.873 173.679 268.979 172.879V170.959C267.006 171.813 265.486 172.213 264.419 172.159C262.659 171.999 261.326 171.493 260.419 170.639C259.566 169.733 258.979 168.613 258.659 167.279C258.393 165.893 258.206 164.453 258.099 162.959C257.993 161.573 257.273 160.773 255.939 160.559C255.726 160.506 255.326 160.453 254.739 160.399C254.206 160.346 253.459 160.293 252.499 160.239C250.206 160.133 247.806 159.173 245.299 157.359V159.599C245.299 159.973 245.166 160.506 244.899 161.199C244.686 161.893 244.579 162.399 244.579 162.719C244.579 163.039 244.819 163.253 245.299 163.359C245.726 163.359 246.446 163.333 247.459 163.279C248.473 163.226 249.513 163.173 250.579 163.119C251.646 163.066 252.499 163.039 253.139 163.039C254.633 163.039 255.406 163.839 255.459 165.439C255.246 165.653 254.793 165.759 254.099 165.759C254.046 166.346 253.939 167.093 253.779 167.999C253.673 168.853 253.566 169.866 253.459 171.039C253.939 171.253 254.526 171.706 255.219 172.399C255.913 173.039 256.686 173.946 257.539 175.119C257.966 175.706 259.113 176.533 260.979 177.599C261.726 178.026 262.339 178.559 262.819 179.199C263.353 179.839 263.779 180.533 264.099 181.279C264.313 181.759 264.366 182.346 264.259 183.039C264.206 183.359 264.153 183.679 264.099 183.999C264.046 184.319 264.019 184.639 264.019 184.959C264.019 185.493 264.153 186.239 264.419 187.199C264.739 188.106 264.899 188.853 264.899 189.439C264.899 192.159 263.619 194.506 261.059 196.479C261.593 196.533 262.073 196.559 262.499 196.559C262.926 196.559 263.299 196.559 263.619 196.559C265.806 196.559 267.139 195.973 267.619 194.799C267.726 194.479 267.913 191.946 268.179 187.199C268.179 186.933 268.233 186.453 268.339 185.759C268.499 185.066 268.686 184.426 268.899 183.839C269.113 183.199 269.326 182.879 269.539 182.879C269.913 183.199 270.099 184.026 270.099 185.359C270.099 186.106 270.019 187.173 269.859 188.559C269.806 189.306 269.753 189.866 269.699 190.239C269.699 190.613 269.699 190.826 269.699 190.879C269.699 191.466 269.699 192.293 269.699 193.359C269.753 194.373 269.806 195.386 269.859 196.399C269.913 197.413 269.913 198.213 269.859 198.799C269.806 199.653 267.619 200.079 263.299 200.079Z" fill="white"/>
</svg>
